<?xml version="1.0" encoding="UTF-8" standalone="no"?>
<!DOCTYPE svg PUBLIC "-//W3C//DTD SVG 1.1//EN" "http://www.w3.org/Graphics/SVG/1.1/DTD/svg11.dtd">
<svg width="100%" height="100%" viewBox="0 0 4600 1400" version="1.1" xmlns="http://www.w3.org/2000/svg" xmlns:xlink="http://www.w3.org/1999/xlink" xml:space="preserve" xmlns:serif="http://www.serif.com/" style="fill-rule:evenodd;clip-rule:evenodd;stroke-linejoin:round;stroke-miterlimit:2;">
    <g transform="matrix(1,0,0,1,-11528.7,-8042.83)">
        <g transform="matrix(1.29614,0,0,1.3986,-8052.08,8042.83)">
            <rect id="banner_light_trans" x="15107" y="0" width="3549" height="1001" style="fill:none;"/>
            <g id="banner_light_trans1" serif:id="banner_light_trans">
                <g transform="matrix(33.6926,0,0,31.2698,-571832,-32000.9)">
                    <path d="M17455.2,1035.25C17455,1035.25 17454.9,1035.29 17454.8,1035.36C17454.3,1035.63 17453.9,1036.17 17453.7,1036.67C17452.9,1038.34 17452.5,1040.58 17452.5,1042.46C17452.5,1042.86 17452.5,1043.26 17452.5,1043.63C17452.6,1043.76 17452.7,1043.82 17452.8,1043.82C17452.9,1043.82 17453,1043.76 17453.1,1043.65C17453.2,1043.55 17453.2,1043.42 17453.3,1043.31C17453.5,1043.78 17453.9,1043.98 17454.4,1043.98C17454.8,1043.98 17455.1,1043.86 17455.4,1043.7C17455.6,1043.59 17455.9,1043.3 17456.1,1043.25C17456.4,1043.27 17456.8,1043.3 17457.1,1043.3C17457.2,1043.3 17457.3,1043.28 17457.3,1043.28C17458,1043.26 17458.7,1043.17 17459.3,1042.85C17459.7,1042.67 17460,1042.4 17460.3,1042.06C17460.3,1042 17460.3,1041.92 17460.3,1041.84C17460.3,1041.72 17460.3,1041.6 17460.1,1041.58L17460.1,1041.58C17459.9,1041.58 17459.8,1041.76 17459.7,1041.88C17459.4,1042.1 17459.2,1042.27 17458.9,1042.42C17458.4,1042.68 17457.8,1042.73 17457.3,1042.73C17457,1042.73 17456.7,1042.72 17456.4,1042.72C17456.5,1042.39 17456.6,1042.09 17456.6,1041.73C17456.6,1041.04 17456.1,1040.58 17455.5,1040.58C17455.4,1040.58 17455.2,1040.6 17455.1,1040.64C17454.3,1040.9 17453.4,1041.72 17453,1042.51C17453,1042.39 17453,1042.29 17453,1042.18C17453,1041.42 17453.8,1040.85 17454.2,1040.26C17454.9,1039.33 17455.5,1038.31 17455.7,1037.16C17455.8,1036.89 17455.8,1036.62 17455.8,1036.33C17455.8,1036.12 17455.8,1035.89 17455.7,1035.7C17455.7,1035.41 17455.4,1035.25 17455.2,1035.25ZM17455.2,1035.79C17455.2,1036.01 17455.3,1036.25 17455.3,1036.49C17455.3,1037.6 17454.6,1038.83 17454,1039.65C17453.7,1039.97 17453.5,1040.39 17453.2,1040.63C17453.3,1039.37 17453.7,1038.05 17454.2,1036.91C17454.4,1036.51 17454.7,1035.93 17455.2,1035.79ZM17455.5,1041.13C17455.6,1041.13 17455.7,1041.14 17455.8,1041.19C17456,1041.31 17456,1041.51 17456,1041.72C17456,1041.89 17456,1042.09 17456,1042.23C17455.9,1042.34 17455.9,1042.54 17455.8,1042.59C17455.7,1042.6 17455.7,1042.6 17455.7,1042.6C17455.5,1042.6 17455.3,1042.5 17455.2,1042.47C17454.8,1042.39 17454.5,1042.29 17454.2,1042.29C17454.1,1042.29 17454,1042.29 17453.9,1042.31C17454.1,1041.85 17454.6,1041.44 17455.1,1041.23C17455.2,1041.18 17455.4,1041.13 17455.5,1041.13L17455.5,1041.13ZM17454.1,1042.82L17454.2,1042.82C17454.5,1042.82 17455,1042.95 17455.3,1043.09C17455.1,1043.3 17454.8,1043.43 17454.4,1043.43C17454.3,1043.43 17454.2,1043.42 17454.1,1043.39C17454,1043.35 17453.8,1043.22 17453.8,1043.05C17453.8,1042.85 17454,1042.82 17454.1,1042.82Z" style="fill:rgb(56,58,66);fill-rule:nonzero;stroke:rgb(56,58,66);stroke-width:0.09px;"/>
                    <path d="M17462.5,1034.67C17462.4,1034.67 17462.3,1034.67 17462.3,1034.69C17461.5,1034.82 17461.1,1035.55 17460.8,1036.16C17460.1,1037.49 17459.9,1039.06 17459.9,1040.54C17459.8,1040.75 17459.8,1040.97 17459.8,1041.18C17459.8,1041.77 17459.9,1042.35 17460,1042.67C17460.3,1043.39 17460.7,1044.06 17461.5,1044.06C17461.6,1044.06 17461.8,1044.05 17461.9,1044.01C17462.8,1043.8 17463.4,1043.22 17463.9,1042.51C17464,1042.39 17464.3,1042.01 17464.3,1041.77C17464.3,1041.67 17464.3,1041.59 17464.1,1041.56L17464.1,1041.56C17463.7,1041.56 17463.5,1042.11 17463.3,1042.34C17463,1042.85 17462.2,1043.48 17461.6,1043.48C17461.2,1043.48 17460.9,1043.32 17460.7,1042.92C17460.6,1042.71 17460.4,1042.35 17460.4,1042.08C17460.4,1042.02 17460.4,1041.98 17460.4,1041.94C17460.7,1041.51 17460.9,1041.06 17461.2,1040.68C17461.9,1039.39 17462.6,1038.05 17463.1,1036.64C17463.1,1036.38 17463.2,1036.01 17463.2,1035.67C17463.2,1035.15 17463.1,1034.67 17462.5,1034.67L17462.5,1034.67ZM17462.4,1035.22C17462.5,1035.22 17462.5,1035.22 17462.5,1035.24C17462.7,1035.3 17462.7,1035.5 17462.7,1035.64C17462.7,1036.01 17462.6,1036.37 17462.5,1036.71C17461.9,1038.17 17461.2,1039.49 17460.4,1040.85C17460.4,1040.73 17460.4,1040.62 17460.4,1040.5C17460.4,1039.05 17460.8,1037.36 17461.4,1036.28C17461.5,1035.93 17461.8,1035.61 17462.1,1035.37C17462.2,1035.3 17462.3,1035.24 17462.4,1035.22L17462.4,1035.22Z" style="fill:rgb(56,58,66);fill-rule:nonzero;stroke:rgb(56,58,66);stroke-width:0.09px;"/>
                    <path d="M17467.1,1040.72C17466.8,1040.72 17466.7,1041.15 17466.6,1041.34C17466.1,1042.05 17465.5,1042.9 17464.7,1043.27C17464.6,1043.32 17464.5,1043.34 17464.4,1043.34C17464.2,1043.34 17464.2,1043.14 17464.2,1042.89C17464.2,1042.54 17464.3,1042.05 17464.4,1041.85C17464.4,1041.73 17464.6,1041.61 17464.6,1041.48L17464.6,1041.4C17464.6,1041.25 17464.5,1041.12 17464.3,1041.12L17464.3,1041.12C17464,1041.15 17463.8,1041.67 17463.8,1041.9C17463.7,1042.18 17463.6,1042.56 17463.6,1042.92C17463.6,1043.44 17463.8,1043.91 17464.4,1043.91L17464.4,1043.91C17464.6,1043.91 17464.7,1043.89 17464.8,1043.84C17465.1,1043.74 17465.3,1043.6 17465.5,1043.44C17465.8,1043.19 17466.1,1042.9 17466.4,1042.6C17466.4,1042.81 17466.4,1043.01 17466.5,1043.19C17466.7,1043.65 17467.1,1043.84 17467.5,1043.84C17468.2,1043.84 17469.1,1043.27 17469.5,1042.85C17469.7,1042.65 17470.3,1042.08 17470.3,1041.8C17470.3,1041.64 17470.1,1041.58 17470,1041.58C17469.9,1041.58 17469.8,1041.61 17469.8,1041.68C17469.3,1042.21 17468.5,1043.27 17467.7,1043.27C17467.6,1043.27 17467.5,1043.25 17467.4,1043.22C17467,1043.11 17466.9,1042.84 17466.9,1042.51C17466.9,1042.13 17467.1,1041.72 17467.2,1041.46C17467.3,1041.33 17467.4,1041.13 17467.4,1040.97C17467.4,1040.88 17467.4,1040.8 17467.2,1040.75C17467.2,1040.72 17467.1,1040.72 17467.1,1040.72Z" style="fill:rgb(56,58,66);fill-rule:nonzero;stroke:rgb(56,58,66);stroke-width:0.09px;"/>
                    <path d="M17472.5,1034.67C17472.4,1034.67 17472.4,1034.67 17472.3,1034.69C17471.6,1034.82 17471.1,1035.55 17470.8,1036.16C17470.2,1037.49 17469.9,1039.06 17469.9,1040.54C17469.9,1040.75 17469.9,1040.97 17469.9,1041.18C17469.9,1041.77 17469.9,1042.35 17470,1042.67C17470.3,1043.39 17470.7,1044.06 17471.5,1044.06C17471.7,1044.06 17471.8,1044.05 17471.9,1044.01C17472.8,1043.8 17473.4,1043.22 17473.9,1042.51C17474,1042.39 17474.3,1042.01 17474.3,1041.77C17474.3,1041.67 17474.3,1041.59 17474.1,1041.56L17474.1,1041.56C17473.8,1041.56 17473.5,1042.11 17473.4,1042.34C17473,1042.85 17472.2,1043.48 17471.6,1043.48C17471.2,1043.48 17470.9,1043.32 17470.7,1042.92C17470.6,1042.71 17470.4,1042.35 17470.4,1042.08C17470.4,1042.02 17470.4,1041.98 17470.4,1041.94C17470.7,1041.51 17471,1041.06 17471.2,1040.68C17471.9,1039.39 17472.6,1038.05 17473.1,1036.64C17473.2,1036.38 17473.3,1036.01 17473.3,1035.67C17473.3,1035.15 17473.1,1034.67 17472.5,1034.67L17472.5,1034.67ZM17472.5,1035.22C17472.5,1035.22 17472.5,1035.22 17472.5,1035.24C17472.7,1035.3 17472.7,1035.5 17472.7,1035.64C17472.7,1036.01 17472.6,1036.37 17472.5,1036.71C17471.9,1038.17 17471.2,1039.49 17470.5,1040.85C17470.5,1040.73 17470.4,1040.62 17470.4,1040.5C17470.4,1039.05 17470.8,1037.36 17471.4,1036.28C17471.6,1035.93 17471.8,1035.61 17472.1,1035.37C17472.2,1035.3 17472.3,1035.24 17472.4,1035.22L17472.5,1035.22Z" style="fill:rgb(56,58,66);fill-rule:nonzero;stroke:rgb(56,58,66);stroke-width:0.09px;"/>
                    <path d="M17475.2,1040.44L17475,1040.44C17474.9,1040.46 17474.7,1040.72 17474.4,1041C17474.1,1041.29 17473.4,1042.06 17473.4,1042.85C17473.4,1043.03 17473.5,1043.22 17473.5,1043.4C17473.7,1043.74 17474,1043.89 17474.3,1043.89C17474.6,1043.89 17474.8,1043.82 17475,1043.72C17475.6,1043.39 17476,1042.69 17476,1041.97C17476.6,1042.35 17477.2,1042.57 17477.9,1042.57C17478.1,1042.57 17478.3,1042.55 17478.6,1042.5C17478.9,1042.43 17479.3,1042.29 17479.5,1042.08C17479.6,1042.01 17479.6,1041.92 17479.6,1041.83C17479.6,1041.75 17479.6,1041.67 17479.5,1041.61C17479.5,1041.58 17479.4,1041.56 17479.4,1041.56C17479.2,1041.56 17479,1041.72 17478.9,1041.77C17478.5,1041.9 17478.1,1042.02 17477.7,1042.02C17477.6,1042.02 17477.5,1042.02 17477.4,1042C17476.8,1041.88 17476.2,1041.44 17475.8,1041.02C17475.6,1040.85 17475.5,1040.51 17475.2,1040.44ZM17475.1,1041.26C17475.4,1041.26 17475.5,1041.79 17475.5,1042.01C17475.5,1042.54 17475,1043.35 17474.4,1043.35C17474.4,1043.35 17474.3,1043.34 17474.3,1043.32C17474.1,1043.27 17474,1043.07 17474,1042.88C17474,1042.81 17474,1042.76 17474,1042.69C17474.1,1042.22 17474.3,1041.81 17474.7,1041.5C17474.8,1041.42 17475,1041.27 17475.1,1041.26Z" style="fill:rgb(56,58,66);fill-rule:nonzero;stroke:rgb(56,58,66);stroke-width:0.09px;"/>
                    <path d="M17480.6,1040.89C17480.6,1040.89 17480.5,1040.88 17480.5,1040.89C17479.7,1041.01 17478.9,1041.63 17478.7,1042.43C17478.7,1042.57 17478.6,1042.73 17478.6,1042.88C17478.6,1043.23 17478.8,1043.59 17479.1,1043.78C17479.3,1043.91 17479.6,1043.95 17479.9,1043.95C17480.2,1043.95 17480.5,1043.9 17480.7,1043.84C17481.8,1043.57 17482.5,1043.28 17483.4,1042.75C17483.8,1042.54 17484.2,1042.35 17484.6,1042.11C17484.7,1042.05 17484.7,1041.94 17484.7,1041.83C17484.7,1041.79 17484.7,1041.73 17484.7,1041.68C17484.7,1041.6 17484.6,1041.58 17484.5,1041.58C17484.4,1041.58 17484.4,1041.58 17484.3,1041.6C17484,1041.73 17483.7,1041.94 17483.4,1042.1C17482.2,1042.73 17481.3,1043.31 17479.9,1043.4C17479.8,1043.42 17479.7,1043.38 17479.6,1043.36C17479.3,1043.3 17479.2,1043.13 17479.2,1042.9C17479.2,1042.46 17479.7,1041.85 17480,1041.67C17480.2,1041.56 17480.4,1041.44 17480.6,1041.44C17480.8,1041.44 17480.9,1041.47 17481,1041.55C17481.1,1041.65 17481.1,1041.83 17481.3,1041.92C17481.3,1041.94 17481.4,1041.97 17481.4,1041.97C17481.5,1041.97 17481.6,1041.92 17481.7,1041.83C17481.7,1041.79 17481.7,1041.73 17481.7,1041.69C17481.7,1041.58 17481.6,1041.46 17481.6,1041.37C17481.4,1041.05 17481,1040.89 17480.7,1040.89L17480.6,1040.89Z" style="fill:rgb(56,58,66);fill-rule:nonzero;stroke:rgb(56,58,66);stroke-width:0.09px;"/>
                    <path d="M17485.6,1040.44L17485.5,1040.44C17485.3,1040.46 17485.1,1040.72 17484.8,1041C17484.5,1041.29 17483.9,1042.06 17483.9,1042.85C17483.9,1043.03 17483.9,1043.22 17484,1043.4C17484.1,1043.74 17484.4,1043.89 17484.8,1043.89C17485,1043.89 17485.2,1043.82 17485.4,1043.72C17486.1,1043.39 17486.4,1042.69 17486.4,1041.97C17487.1,1042.35 17487.6,1042.57 17488.3,1042.57C17488.5,1042.57 17488.7,1042.55 17489,1042.5C17489.3,1042.43 17489.7,1042.29 17489.9,1042.08C17490,1042.01 17490,1041.92 17490,1041.83C17490,1041.75 17490,1041.67 17489.9,1041.61C17489.9,1041.58 17489.8,1041.56 17489.8,1041.56C17489.6,1041.56 17489.4,1041.72 17489.3,1041.77C17488.9,1041.9 17488.5,1042.02 17488.1,1042.02C17488,1042.02 17487.9,1042.02 17487.8,1042C17487.2,1041.88 17486.7,1041.44 17486.2,1041.02C17486,1040.85 17485.9,1040.51 17485.6,1040.44ZM17485.5,1041.26C17485.9,1041.26 17485.9,1041.79 17485.9,1042.01C17485.9,1042.54 17485.4,1043.35 17484.9,1043.35C17484.8,1043.35 17484.7,1043.34 17484.7,1043.32C17484.5,1043.27 17484.4,1043.07 17484.4,1042.88C17484.4,1042.81 17484.4,1042.76 17484.4,1042.69C17484.5,1042.22 17484.8,1041.81 17485.1,1041.5C17485.2,1041.42 17485.4,1041.27 17485.5,1041.26Z" style="fill:rgb(56,58,66);fill-rule:nonzero;stroke:rgb(56,58,66);stroke-width:0.09px;"/>
                    <path d="M17496.1,1035.09L17496.1,1035.09C17496,1035.09 17496,1035.11 17495.9,1035.12C17495.2,1035.26 17494.8,1036.05 17494.5,1036.64C17494.3,1037.12 17494.2,1037.62 17494,1038.13L17493.9,1038.13C17493.3,1038.13 17492.7,1038.18 17492.1,1038.29C17491.9,1038.31 17491.8,1038.43 17491.8,1038.56C17491.8,1038.64 17491.9,1038.72 17491.9,1038.78C17492,1038.83 17492.1,1038.85 17492.2,1038.85C17492.3,1038.85 17492.4,1038.84 17492.4,1038.83C17492.8,1038.78 17493.1,1038.76 17493.5,1038.72C17493.6,1038.7 17493.8,1038.68 17493.9,1038.67C17493.8,1039.21 17493.7,1039.77 17493.7,1040.31C17493.6,1040.67 17493.6,1041.02 17493.6,1041.38C17493.6,1041.55 17493.6,1041.72 17493.6,1041.88C17493.7,1042.77 17494,1043.78 17495,1043.85L17495.1,1043.85C17495.2,1043.85 17495.4,1043.82 17495.6,1043.78C17496.3,1043.57 17497,1043.11 17497.3,1042.46C17497.4,1042.32 17497.6,1041.98 17497.6,1041.76C17497.6,1041.64 17497.5,1041.56 17497.4,1041.56L17497.4,1041.56C17497.1,1041.58 17496.9,1042.01 17496.8,1042.21C17496.6,1042.72 17496,1043.05 17495.4,1043.23C17495.3,1043.27 17495.2,1043.28 17495.1,1043.28C17494.8,1043.28 17494.6,1043.18 17494.4,1042.92C17494.3,1042.71 17494.2,1042.31 17494.2,1042.04C17494.2,1041.98 17494.2,1041.94 17494.2,1041.9C17494.2,1041.75 17494.4,1041.59 17494.5,1041.46C17494.7,1041.18 17494.8,1040.88 17495,1040.59C17495.4,1039.96 17495.8,1039.29 17496.1,1038.59L17497.1,1038.59C17497.4,1038.59 17497.7,1038.6 17498,1038.62C17498.1,1038.62 17498.2,1038.64 17498.3,1038.64C17498.3,1038.64 17498.4,1038.63 17498.4,1038.59C17498.6,1038.51 17498.6,1038.46 17498.6,1038.39C17498.6,1038.2 17498.2,1038.07 17498,1038.05C17497.6,1038.01 17497.2,1037.99 17496.7,1037.99C17496.6,1037.99 17496.5,1038 17496.3,1038C17496.4,1037.67 17496.5,1037.34 17496.6,1037.01C17496.7,1036.78 17496.8,1036.41 17496.8,1036.05C17496.8,1035.55 17496.6,1035.11 17496.1,1035.09ZM17496,1035.66L17496.1,1035.66C17496.2,1035.7 17496.2,1035.91 17496.2,1036.01L17496.2,1036.09C17496.2,1036.41 17496.1,1036.74 17496,1037.04C17496,1037.37 17495.8,1037.71 17495.7,1038.04C17495.7,1038.04 17495.6,1038.07 17495.6,1038.07C17495.3,1038.1 17494.9,1038.1 17494.6,1038.12C17494.8,1037.64 17494.9,1037.18 17495.1,1036.74C17495.3,1036.41 17495.5,1036.07 17495.7,1035.83C17495.8,1035.76 17495.9,1035.66 17496,1035.66ZM17495.5,1038.59C17495.1,1039.41 17494.6,1040.19 17494.2,1040.9C17494.2,1040.83 17494.2,1040.76 17494.2,1040.68C17494.2,1040.34 17494.3,1039.93 17494.3,1039.62C17494.4,1039.29 17494.4,1038.96 17494.5,1038.63C17494.8,1038.62 17495.1,1038.59 17495.5,1038.59Z" style="fill:rgb(56,58,66);fill-rule:nonzero;stroke:rgb(56,58,66);stroke-width:0.09px;"/>
                    <path d="M17499.5,1034.83C17499.2,1034.83 17499,1034.88 17498.8,1035.04C17498.4,1035.36 17498.1,1035.86 17498,1036.33C17497.6,1037.14 17497.6,1038.07 17497.5,1038.93C17497.3,1040.02 17497.2,1041.14 17497.2,1042.23L17497.2,1043.3C17497.2,1043.36 17497.2,1043.44 17497.2,1043.52C17497.2,1043.64 17497.2,1043.76 17497.3,1043.84C17497.3,1043.91 17497.4,1043.95 17497.5,1043.95C17497.7,1043.95 17497.9,1043.53 17497.9,1043.38C17498.2,1042.73 17498.6,1042.35 17499.1,1041.85C17499.2,1041.69 17499.5,1041.43 17499.8,1041.43L17499.8,1041.43C17500,1041.46 17500.1,1041.79 17500.1,1041.97C17500.2,1042.5 17500.1,1043.19 17500.5,1043.63C17500.7,1043.8 17500.9,1043.86 17501.1,1043.86C17501.2,1043.86 17501.4,1043.82 17501.5,1043.77C17502.2,1043.52 17502.6,1043.05 17503.1,1042.55C17503.3,1042.36 17503.6,1042.02 17503.6,1041.84C17503.6,1041.65 17503.4,1041.58 17503.3,1041.58C17503.2,1041.58 17503.1,1041.61 17503,1041.69C17502.6,1042.22 17502.1,1042.75 17501.7,1043.06C17501.6,1043.14 17501.3,1043.3 17501.1,1043.3C17501.1,1043.3 17501,1043.3 17501,1043.27C17500.8,1043.15 17500.8,1042.81 17500.8,1042.6C17500.7,1042.13 17500.7,1041.6 17500.4,1041.19C17500.3,1040.96 17500,1040.87 17499.8,1040.87C17499.6,1040.87 17499.5,1040.9 17499.3,1040.97C17498.7,1041.23 17498.1,1041.97 17497.8,1042.44L17497.8,1042.35C17497.8,1041.94 17498.3,1041.35 17498.6,1040.88C17499.3,1039.64 17500.1,1038.33 17500.3,1036.91C17500.3,1036.68 17500.4,1036.45 17500.4,1036.2C17500.4,1035.82 17500.3,1035.43 17500.1,1035.13C17499.9,1034.93 17499.7,1034.84 17499.5,1034.83ZM17499.4,1035.37C17499.6,1035.38 17499.7,1035.59 17499.8,1035.76C17499.8,1035.92 17499.8,1036.08 17499.8,1036.25C17499.8,1036.46 17499.8,1036.67 17499.7,1036.88C17499.4,1038.41 17498.6,1039.93 17497.8,1041.23C17497.9,1039.83 17498,1035.41 17499.4,1035.37Z" style="fill:rgb(56,58,66);fill-rule:nonzero;stroke:rgb(56,58,66);stroke-width:0.09px;"/>
                    <path d="M17504.6,1040.73C17504.5,1040.73 17504.4,1040.75 17504.4,1040.76C17503.5,1040.9 17502.7,1041.85 17502.7,1042.72C17502.7,1043.07 17502.8,1043.43 17503.2,1043.69C17503.4,1043.82 17503.5,1043.9 17503.7,1043.97C17504,1044.05 17504.3,1044.09 17504.5,1044.09C17505.6,1044.09 17506.6,1043.5 17507.4,1042.86C17507.7,1042.63 17508.1,1042.36 17508.4,1042.08C17508.4,1042.01 17508.5,1041.92 17508.5,1041.83C17508.5,1041.76 17508.5,1041.69 17508.4,1041.64C17508.3,1041.6 17508.3,1041.58 17508.2,1041.58C17507.9,1041.58 17507.5,1042.02 17507.4,1042.17C17506.5,1042.88 17505.6,1043.44 17504.5,1043.51L17504.4,1043.51C17503.9,1043.51 17503.3,1043.22 17503.3,1042.67C17503.3,1042.63 17503.3,1042.59 17503.3,1042.55C17503.3,1042.44 17503.3,1042.29 17503.4,1042.21C17503.4,1042.18 17503.5,1042.18 17503.5,1042.18C17503.7,1042.18 17504,1042.26 17504.1,1042.27C17504.2,1042.29 17504.3,1042.29 17504.4,1042.29C17504.9,1042.29 17505.5,1042.13 17505.6,1041.65C17505.7,1041.58 17505.7,1041.51 17505.7,1041.44C17505.7,1040.96 17505.1,1040.73 17504.6,1040.73ZM17504.6,1041.29C17504.8,1041.29 17505,1041.3 17505.1,1041.46C17505.1,1041.59 17504.9,1041.64 17504.8,1041.67C17504.6,1041.71 17504.5,1041.72 17504.3,1041.72C17504.2,1041.72 17504,1041.69 17503.8,1041.68C17503.9,1041.43 17504.3,1041.3 17504.6,1041.29Z" style="fill:rgb(56,58,66);fill-rule:nonzero;stroke:rgb(56,58,66);stroke-width:0.09px;"/>
                    <path d="M17510.6,1040.93C17510.4,1040.93 17510.3,1040.97 17510.2,1041.02C17509.8,1041.23 17509.2,1041.88 17508.9,1042.21C17508.7,1042.36 17508.5,1042.54 17508.4,1042.75L17508.4,1042.75C17508.4,1042.51 17508.5,1042.27 17508.5,1042.04C17508.6,1041.89 17508.7,1041.69 17508.7,1041.52C17508.7,1041.48 17508.7,1041.46 17508.7,1041.43C17508.6,1041.3 17508.5,1041.23 17508.4,1041.23C17508.3,1041.23 17508.2,1041.27 17508.2,1041.35C17508,1041.55 17508,1041.86 17508,1042.09C17507.9,1042.52 17507.7,1042.95 17507.7,1043.4C17507.7,1043.47 17507.7,1043.53 17507.7,1043.61C17507.7,1043.81 17507.7,1043.99 17508,1043.99L17508,1043.99C17508.3,1043.98 17508.5,1043.51 17508.7,1043.28C17509.1,1042.73 17509.9,1041.77 17510.6,1041.48C17510.6,1042.01 17510.3,1042.82 17510.3,1043.35C17510.3,1043.6 17510.3,1043.89 17510.5,1044.03C17510.6,1044.09 17510.7,1044.1 17510.8,1044.1C17511,1044.1 17511.3,1043.91 17511.4,1043.76C17512,1043.25 17512.5,1042.08 17513.1,1041.58C17513.1,1041.79 17513.1,1042.13 17513.1,1042.48C17513.1,1043.05 17513.2,1043.65 17513.5,1043.86C17513.7,1043.95 17513.8,1043.98 17514,1043.98C17514.7,1043.98 17515.4,1043.06 17515.7,1042.6C17515.9,1042.4 17516.2,1042.13 17516.2,1041.85C17516.2,1041.83 17516.2,1041.8 17516.2,1041.77C17516.2,1041.64 17516.1,1041.58 17515.9,1041.58C17515.9,1041.58 17515.8,1041.61 17515.7,1041.67C17515.4,1042.15 17515,1042.65 17514.5,1043.06C17514.4,1043.19 17514.2,1043.4 17514,1043.4L17513.9,1043.4C17513.7,1043.38 17513.7,1043.03 17513.7,1042.84C17513.7,1042.64 17513.7,1042.3 17513.7,1041.96C17513.7,1041.55 17513.6,1041.15 17513.5,1041.02C17513.4,1040.97 17513.3,1040.96 17513.2,1040.96C17513,1040.96 17512.7,1041.15 17512.6,1041.31C17512,1041.86 17511.5,1043.1 17510.8,1043.52C17510.8,1043.05 17511.1,1042.27 17511.1,1041.8L17511.1,1041.6C17511.1,1041.44 17511.1,1041.29 17511,1041.14C17510.9,1040.98 17510.7,1040.93 17510.6,1040.93Z" style="fill:rgb(56,58,66);fill-rule:nonzero;stroke:rgb(56,58,66);stroke-width:0.09px;"/>
                    <path d="M17517.3,1040.73C17517.2,1040.73 17517.1,1040.75 17517.1,1040.76C17516.2,1040.9 17515.4,1041.85 17515.4,1042.72C17515.4,1043.07 17515.5,1043.43 17515.9,1043.69C17516,1043.82 17516.2,1043.9 17516.4,1043.97C17516.7,1044.05 17517,1044.09 17517.2,1044.09C17518.3,1044.09 17519.3,1043.5 17520.1,1042.86C17520.4,1042.63 17520.8,1042.36 17521,1042.08C17521.1,1042.01 17521.2,1041.92 17521.2,1041.83C17521.2,1041.76 17521.1,1041.69 17521.1,1041.64C17521,1041.6 17521,1041.58 17520.9,1041.58C17520.6,1041.58 17520.2,1042.02 17520,1042.17C17519.2,1042.88 17518.3,1043.44 17517.1,1043.51L17517.1,1043.51C17516.6,1043.51 17515.9,1043.22 17515.9,1042.67C17515.9,1042.63 17515.9,1042.59 17515.9,1042.55C17516,1042.44 17516,1042.29 17516.1,1042.21C17516.1,1042.18 17516.1,1042.18 17516.2,1042.18C17516.4,1042.18 17516.7,1042.26 17516.8,1042.27C17516.8,1042.29 17516.9,1042.29 17517,1042.29C17517.5,1042.29 17518.1,1042.13 17518.3,1041.65C17518.3,1041.58 17518.3,1041.51 17518.3,1041.44C17518.3,1040.96 17517.8,1040.73 17517.3,1040.73ZM17517.3,1041.29C17517.4,1041.29 17517.7,1041.3 17517.7,1041.46C17517.8,1041.59 17517.6,1041.64 17517.5,1041.67C17517.3,1041.71 17517.2,1041.72 17517,1041.72C17516.8,1041.72 17516.7,1041.69 17516.5,1041.68C17516.6,1041.43 17517,1041.3 17517.3,1041.29Z" style="fill:rgb(56,58,66);fill-rule:nonzero;stroke:rgb(56,58,66);stroke-width:0.09px;"/>
                </g>
                <g transform="matrix(0.771522,0,0,0.714998,9978.48,-4432.53)">
                    <g id="both">
                        <g id="Fill" transform="matrix(1,0,0,1,-2263.85,3591.44)">
                            <path d="M9610.62,2807.92C9610.79,2807.92 9610.96,2807.92 9611.12,2807.92C9613.97,2807.92 9616.81,2807.95 9619.65,2808C9606.78,2871.16 9588.63,2925.45 9595.99,2992.02C9603.04,3055.78 9631.32,3080.58 9620.48,3151.49C9612.02,3206.78 9601.65,3237.96 9638.08,3307.92C9658.19,3346.54 9611.8,3398.97 9610.62,3441.29C9609,3499.84 9611.92,3659.47 9621.39,3708.99C9627.67,3741.87 9611.66,3741.92 9608.84,3777.28C9607.98,3788.01 9607.66,3798.13 9608.06,3807.91C9333.33,3806.26 9111.12,3583.03 9111.12,3307.92C9111.12,3031.94 9334.71,2808.19 9610.62,2807.92Z" style="fill:rgb(249,249,249);"/>
                            <path d="M9610.62,2807.92C9610.79,2807.92 9610.96,2807.92 9611.12,2807.92C9613.97,2807.92 9616.81,2807.95 9619.65,2808C9606.78,2871.16 9588.63,2925.45 9595.99,2992.02C9603.04,3055.78 9631.32,3080.58 9620.48,3151.49C9612.02,3206.78 9601.65,3237.96 9638.08,3307.92C9658.19,3346.54 9611.8,3398.97 9610.62,3441.29C9609,3499.84 9611.92,3659.47 9621.39,3708.99C9627.67,3741.87 9611.66,3741.92 9608.84,3777.28C9607.98,3788.01 9607.66,3798.13 9608.06,3807.91C9333.33,3806.26 9111.12,3583.03 9111.12,3307.92C9111.12,3031.94 9334.71,2808.19 9610.62,2807.92ZM9607.34,2817.93C9338.47,2819.96 9121.12,3038.56 9121.12,3307.92C9121.12,3574.11 9333.39,3790.73 9597.9,3797.74C9597.95,3790.88 9598.29,3783.82 9598.87,3776.48C9600.12,3760.85 9603.69,3751.47 9607.09,3743.51C9611.01,3734.33 9614.77,3727.63 9611.57,3710.87C9602.02,3660.95 9598.99,3500.03 9600.63,3441.01C9601.24,3418.82 9613.36,3393.88 9623.04,3369.52C9631.11,3349.22 9638.01,3329.42 9629.21,3312.54C9591.34,3239.82 9601.8,3207.45 9610.59,3149.98C9616.8,3109.41 9609.45,3084.68 9601.23,3058.25C9595.31,3039.22 9588.95,3019.37 9586.05,2993.12C9579.03,2929.67 9594.59,2877.16 9607.34,2817.93Z" style="fill:rgb(206,206,210);"/>
                        </g>
                        <g id="Fill1" serif:id="Fill" transform="matrix(1.00094,0,0,1,-2273.32,3591.44)">
                            <path d="M9619.9,2807.99C9891.97,2812.54 10111.1,3034.62 10111.1,3307.92C10111.1,3584.06 9887.38,3807.91 9611.38,3807.91C9610.35,3807.91 9609.33,3807.91 9608.31,3807.91C9607.92,3798.13 9608.24,3788.01 9609.09,3777.28C9611.91,3741.92 9627.92,3741.87 9621.64,3708.99C9612.17,3659.47 9609.25,3499.84 9610.88,3441.29C9612.05,3398.97 9658.42,3346.54 9638.32,3307.92C9601.9,3237.96 9612.27,3206.78 9620.73,3151.49C9631.57,3080.58 9603.3,3055.78 9596.25,2992.02C9588.89,2925.45 9607.03,2871.16 9619.9,2808C9619.9,2808 9619.89,2808 9619.89,2808C9619.89,2808 9619.9,2807.99 9619.9,2807.99Z" style="fill:rgb(40,44,52);"/>
                            <path d="M9619.9,2807.99C9891.97,2812.54 10111.1,3034.62 10111.1,3307.92C10111.1,3584.06 9887.38,3807.91 9611.38,3807.91C9610.35,3807.91 9609.33,3807.91 9608.31,3807.91C9607.92,3798.13 9608.24,3788.01 9609.09,3777.28C9611.91,3741.92 9627.92,3741.87 9621.64,3708.99C9612.17,3659.47 9609.25,3499.84 9610.88,3441.29C9612.05,3398.97 9658.42,3346.54 9638.32,3307.92C9601.9,3237.96 9612.27,3206.78 9620.73,3151.49C9631.57,3080.58 9603.3,3055.78 9596.25,2992.02C9588.89,2925.45 9607.03,2871.16 9619.9,2808L9619.89,2808C9619.89,2808 9619.9,2807.99 9619.9,2807.99ZM9627.98,2818.2C9615.49,2876.86 9599.27,2928.36 9606.18,2990.92C9609.63,3022.12 9618.35,3043.77 9624.8,3066.32C9631.74,3090.54 9636.31,3115.71 9630.61,3153C9622.49,3206.12 9612.2,3236.09 9647.18,3303.29C9656.44,3321.08 9654.17,3341.41 9647.17,3362.51C9638.35,3389.1 9621.55,3417.03 9620.87,3441.56C9619.26,3499.64 9622.07,3657.99 9631.45,3707.12C9635.14,3726.4 9632.18,3736.05 9628,3746.07C9624.74,3753.87 9620.34,3761.92 9619.06,3778.07C9618.51,3784.9 9618.19,3791.48 9618.15,3797.86C9885.51,3794.24 10101.1,3576.27 10101.1,3307.92C10101.1,3042.86 9890.78,2826.96 9627.98,2818.2Z" style="fill:rgb(27,29,35);"/>
                        </g>
                        <g id="signs" transform="matrix(0.999003,0,0,0.999003,6947.67,6499.75)">
                            <g transform="matrix(1.001,0,0,1.001,-9220.71,-2911.22)">
                                <path d="M9237,3113.37C9237,3113.37 9180.19,3150.01 9179.7,3223C9179.21,3295.99 9255.6,3384.72 9377.13,3373.21C9453.59,3365.96 9491.8,3317 9491.8,3317C9357.04,3335.42 9222.16,3229.44 9237,3113.37Z" style="fill:rgb(160,161,167);fill-opacity:0.2;"/>
                            </g>
                            <g transform="matrix(1.001,0,0,1.001,-9220.71,-2911.22)">
                                <path d="M9481.24,3327.99C9465.09,3342.87 9430.39,3368.16 9377.13,3373.21C9286.98,3381.75 9221.68,3335.14 9194.16,3280.71C9197.51,3240.78 9220.76,3214.87 9220.76,3214.87C9234.91,3315.73 9372.19,3373.89 9481.24,3327.99Z" style="fill:rgb(160,161,167);fill-opacity:0.2;"/>
                            </g>
                            <g transform="matrix(-0.498833,0.288001,-0.295387,-0.511625,5857.33,-958.634)">
                                <path d="M9231.79,3112.84C9231.79,3112.84 9162.56,3151.31 9159.7,3210.01C9156.16,3282.93 9248.08,3362.83 9370,3356.25C9472.7,3350.71 9491.8,3317 9491.8,3317C9335.61,3310.46 9216.95,3228.91 9231.79,3112.84Z" style="fill:rgb(160,161,167);fill-opacity:0.2;"/>
                            </g>
                            <g transform="matrix(1.001,0,0,1.001,-9220.71,-2911.22)">
                                <path d="M9611.08,3663.77L9611.08,3709C9611.01,3709 9610.94,3709 9610.87,3708.99C9554.71,3707.62 9481.73,3752.9 9481.73,3752.9C9483.2,3696.3 9578.82,3663.81 9611.08,3663.77Z" style="fill:rgb(160,161,167);fill-opacity:0.2;"/>
                            </g>
                            <g transform="matrix(-1.001,0,0,1.001,10018,-2911.22)">
                                <path d="M9237,3113.37C9237,3113.37 9180.19,3150.01 9179.7,3223C9179.21,3295.99 9255.6,3384.72 9377.13,3373.21C9453.59,3365.96 9491.8,3317 9491.8,3317C9357.04,3335.42 9222.16,3229.44 9237,3113.37Z" style="fill:rgb(171,178,191);fill-opacity:0.2;"/>
                            </g>
                            <g transform="matrix(0.498833,0.288001,0.295387,-0.511625,-5057.33,-958.634)">
                                <path d="M9231.79,3112.84C9231.79,3112.84 9162.56,3151.31 9159.7,3210.01C9156.16,3282.93 9248.08,3362.83 9370,3356.25C9472.7,3350.71 9491.8,3317 9491.8,3317C9335.61,3310.46 9216.95,3228.91 9231.79,3112.84Z" style="fill:rgb(171,178,191);fill-opacity:0.2;"/>
                            </g>
                            <g transform="matrix(-1.001,0,0,1.001,10018,-2911.22)">
                                <path d="M9481.24,3327.99C9465.09,3342.87 9430.39,3368.16 9377.13,3373.21C9286.98,3381.75 9221.68,3335.14 9194.16,3280.71C9197.51,3240.78 9220.76,3214.87 9220.76,3214.87C9234.91,3315.73 9372.19,3373.89 9481.24,3327.99Z" style="fill:rgb(171,178,191);fill-opacity:0.2;"/>
                            </g>
                            <g transform="matrix(1.001,0,0,1.001,-9220.71,-2911.22)">
                                <path d="M9611.08,3709L9611.08,3663.77C9611.09,3663.77 9611.11,3663.77 9611.12,3663.77C9643.34,3663.77 9734.73,3694.42 9740.52,3754.22C9740.52,3754.22 9676.17,3710.68 9611.08,3709Z" style="fill:rgb(171,178,191);fill-opacity:0.2;"/>
                            </g>
                        </g>
                        <g id="mouth" transform="matrix(1.61227,0,0,1.61227,6701.48,6186.38)">
                            <g transform="matrix(0.620243,0,0,0.628724,-5561.23,-1639.54)">
                                <path d="M9618.44,3407.92C9832.57,3407.73 10044.7,3395.8 10044.7,3395.8C10044.7,3395.8 10027.7,3684.46 9618.44,3688.33L9618.44,3407.92Z" style="fill:none;stroke:rgb(171,178,191);stroke-width:5.94px;stroke-linejoin:miter;stroke-miterlimit:10;"/>
                            </g>
                            <g id="mouth-outline" serif:id="mouth outline" transform="matrix(0.620243,0,0,0.620243,-5561.23,-1609.39)">
                                <path d="M9612.08,3688.36C9610.53,3688.37 9608.98,3688.37 9607.43,3688.37C9189.14,3687.94 9179.34,3395.8 9179.34,3395.8C9179.34,3395.8 9395.54,3407.93 9611.43,3407.93C9611.65,3407.93 9611.86,3407.93 9612.08,3407.93L9612.08,3688.36Z" style="fill:none;stroke:rgb(160,161,167);stroke-width:10px;stroke-linejoin:miter;stroke-miterlimit:10;"/>
                            </g>
                            <g id="mouth-colors" serif:id="mouth colors" transform="matrix(0.620243,0,0,0.620243,151.592,193.807)">
                                <g transform="matrix(1.61227,0,0,1.61227,-2290.78,-475.308)">
                                    <path d="M1525.46,610.195L1509.49,661.262L1583.34,677.847L1600.07,612.819L1525.46,610.195Z" style="fill:rgb(0,152,221);"/>
                                </g>
                                <g transform="matrix(1.61227,0,0,1.61227,-2290.78,-475.308)">
                                    <path d="M1600.07,612.819L1669.28,613.12L1668.78,681.428C1668.78,681.428 1582.82,680.301 1583.13,674.568C1583.45,668.836 1600.07,612.819 1600.07,612.819Z" style="fill:rgb(206,51,192);"/>
                                </g>
                                <g transform="matrix(1.61227,0,0,1.61227,-2290.78,-475.308)">
                                    <path d="M1669.28,613.12L1741.14,612.585L1757.44,674.221L1670.37,681.807L1669.28,613.12Z" style="fill:rgb(35,151,74);"/>
                                </g>
                                <g transform="matrix(1.61227,0,0,1.61227,-2290.78,-475.308)">
                                    <path d="M1741.14,612.585L1812.94,609.537L1830.6,656.714L1757.91,675.497L1741.14,612.585Z" style="fill:rgb(213,39,83);"/>
                                </g>
                                <g transform="matrix(1.61227,0,0,1.61227,-2290.78,-475.308)">
                                    <path d="M1812.94,609.537L1877.03,607.086L1887.06,634.986L1830.65,659.462L1812.94,609.537Z" style="fill:rgb(39,95,228);"/>
                                </g>
                                <g transform="matrix(1.61227,0,0,1.61227,-2290.78,-475.308)">
                                    <path d="M1458.78,606.578L1445.65,635.673L1507.24,663.338L1525.05,610.525L1458.78,606.578Z" style="fill:rgb(197,163,50);"/>
                                </g>
                                <g transform="matrix(1.61227,0,0,1.61227,-2291.78,-475.308)">
                                    <path d="M1876.67,605.896L1889.48,634.024L1929.23,605.801L1876.67,605.896Z" style="fill:rgb(223,99,28);"/>
                                </g>
                                <g transform="matrix(1.61227,0,0,1.61227,-2290.78,-475.308)">
                                    <path d="M1410.55,607.074L1444.35,635.19L1457.4,607.051L1410.55,607.074Z" style="fill:rgb(130,63,241);"/>
                                </g>
                                <g transform="matrix(1.61227,0,0,1.61227,-2290.78,-475.308)">
                                    <path d="M1581.12,677.77L1558.2,759.398C1558.2,759.398 1592.99,768.325 1610.69,770.706C1628.4,773.088 1669.8,774.433 1669.8,774.433L1672.02,682.407L1581.12,677.77Z" style="fill:rgb(255,120,248);"/>
                                </g>
                                <g transform="matrix(1.61227,0,0,1.61227,-2290.78,-475.308)">
                                    <path d="M1581.12,677.77L1507.14,661.774L1482.93,727.075L1557.97,761.781L1581.12,677.77Z" style="fill:rgb(16,177,254);"/>
                                </g>
                                <g transform="matrix(1.61227,0,0,1.61227,-2290.78,-475.308)">
                                    <path d="M1507.14,661.774L1446.4,636.135L1429.79,669.321C1429.79,669.321 1455.63,711.497 1482.24,724.577C1482.87,724.886 1507.14,661.774 1507.14,661.774Z" style="fill:rgb(249,200,89);"/>
                                </g>
                                <g transform="matrix(1.61227,0,0,1.61227,-2290.78,-475.308)">
                                    <path d="M1446.4,636.135L1408.66,608.92C1410.52,629.153 1416.53,649.386 1431,669.62L1446.4,636.135Z" style="fill:rgb(159,126,254);"/>
                                </g>
                                <g transform="matrix(1.61227,0,0,1.61227,-2290.78,-475.308)">
                                    <path d="M1672.02,682.407L1758.15,676.079L1781.11,758.603L1670.35,772.014L1672.02,682.407Z" style="fill:rgb(63,197,107);"/>
                                </g>
                                <g transform="matrix(1.61227,0,0,1.61227,-2290.78,-475.308)">
                                    <path d="M1758.15,676.079L1832.28,658.962L1856.67,722.632L1780.05,760.095L1758.15,676.079Z" style="fill:rgb(255,100,128);"/>
                                </g>
                                <g transform="matrix(1.61227,0,0,1.61227,-2290.78,-475.308)">
                                    <path d="M1832.28,658.962L1889.34,636.973L1906.03,670.329L1859.64,723.627L1832.28,658.962Z" style="fill:rgb(54,145,255);"/>
                                </g>
                                <g transform="matrix(1.61227,0,0,1.61227,-2290.78,-475.308)">
                                    <path d="M1889.34,636.973L1930.69,610.449L1908.46,671.283L1889.34,636.973Z" style="fill:rgb(255,147,106);"/>
                                </g>
                            </g>
                            <g id="mouth-lights" serif:id="mouth lights" transform="matrix(0.620243,0,0,0.620243,151.903,193.803)">
                                <g transform="matrix(0.344488,0.0889637,-0.412944,1.59901,-349.375,-10769.7)">
                                    <path d="M9646.94,6669.24L9653.24,6512.63L9695.39,6512.63L9698.07,6667.3C9698.07,6667.3 9646.78,6671.13 9646.94,6669.24Z" style="fill:white;"/>
                                </g>
                                <g transform="matrix(0.393088,0.134579,-0.434349,1.26867,-799.654,-9064.21)">
                                    <path d="M9651.91,6673.34L9653.24,6512.63L9695.39,6512.63L9698.07,6667.3C9698.07,6667.3 9651.76,6675.23 9651.91,6673.34Z" style="fill:white;"/>
                                </g>
                                <g transform="matrix(0.299235,0.127012,-0.288559,0.679832,-952.41,-5153.67)">
                                    <path d="M9651.91,6673.34L9653.24,6512.63L9695.39,6512.63L9698.07,6667.3C9698.07,6667.3 9651.76,6675.23 9651.91,6673.34Z" style="fill:white;"/>
                                </g>
                                <g transform="matrix(0.172235,0.0671024,-0.109828,0.281902,-949.886,-1991.75)">
                                    <path d="M9651.91,6673.34L9653.24,6512.63L9695.39,6512.63L9698.07,6667.3C9698.07,6667.3 9651.76,6675.23 9651.91,6673.34Z" style="fill:white;"/>
                                </g>
                                <g transform="matrix(0.465751,-0.11379,0.37873,1.55017,-6462.02,-8489.6)">
                                    <path d="M9651.91,6673.34L9653.24,6512.63L9695.39,6512.63L9698.07,6667.3C9698.07,6667.3 9651.76,6675.23 9651.91,6673.34Z" style="fill:white;"/>
                                </g>
                                <g transform="matrix(0.395346,-0.142678,0.434353,1.20355,-6028.95,-5952.27)">
                                    <path d="M9651.91,6673.34L9653.24,6512.63L9695.39,6512.63L9698.07,6667.3C9698.07,6667.3 9651.76,6675.23 9651.91,6673.34Z" style="fill:white;"/>
                                </g>
                                <g transform="matrix(0.201275,-0.0890128,0.333017,0.753017,-3392.5,-3543.47)">
                                    <path d="M9651.91,6673.34L9653.24,6512.63L9695.39,6512.63L9698.07,6667.3C9698.07,6667.3 9651.76,6675.23 9651.91,6673.34Z" style="fill:white;"/>
                                </g>
                                <g transform="matrix(0.101003,-0.066043,0.13259,0.202778,-1045.95,-183.872)">
                                    <path d="M9651.91,6673.34L9653.24,6512.63L9695.39,6512.63L9698.07,6667.3C9698.07,6667.3 9651.76,6675.23 9651.91,6673.34Z" style="fill:white;"/>
                                </g>
                            </g>
                            <g id="mouth-lines" serif:id="mouth lines">
                                <path d="M133.288,496.725C311.038,506.261 489.005,506.27 667.19,496.725" style="fill:none;fill-rule:nonzero;stroke:white;stroke-width:1.49px;stroke-linejoin:miter;stroke-miterlimit:10;"/>
                                <path d="M137.772,502.307C137.772,502.307 254.996,508.607 378.525,509.302C385.731,509.343 392.959,509.364 400.187,509.364C531.301,509.364 662.228,502.307 662.228,502.307C662.228,502.307 651.791,672.85 397.757,672.603C143.723,672.356 137.772,502.307 137.772,502.307Z" style="fill:none;fill-rule:nonzero;stroke:rgb(40,44,52);stroke-width:10px;stroke-linejoin:miter;stroke-miterlimit:10;"/>
                                <path d="M137.772,502.307C137.772,502.307 189.166,581.057 391.541,581.057C593.916,581.057 662.228,502.307 662.228,502.307" style="fill:none;fill-rule:nonzero;stroke:rgb(40,44,52);stroke-width:10px;stroke-linejoin:miter;stroke-miterlimit:10;"/>
                                <path d="M188.631,504.633L159.218,571.06" style="fill:none;fill-rule:nonzero;stroke:rgb(40,44,52);stroke-width:10px;stroke-linejoin:miter;stroke-miterlimit:10;"/>
                                <path d="M605.74,504.855L635.235,571.06" style="fill:none;fill-rule:nonzero;stroke:rgb(40,44,52);stroke-width:10px;stroke-linejoin:miter;stroke-miterlimit:10;"/>
                                <path d="M257.155,507.057L212.259,626.678" style="fill:none;fill-rule:nonzero;stroke:rgb(40,44,52);stroke-width:10px;stroke-linejoin:miter;stroke-miterlimit:10;"/>
                                <path d="M400.187,509.364L400.187,672.603" style="fill:none;fill-rule:nonzero;stroke:rgb(40,44,52);stroke-width:10px;stroke-linejoin:miter;stroke-miterlimit:10;"/>
                                <path d="M541.201,507.116L586.32,620.182" style="fill:none;fill-rule:nonzero;stroke:rgb(40,44,52);stroke-width:10px;stroke-linejoin:miter;stroke-miterlimit:10;"/>
                                <path d="M329.891,508.751L288.268,658.736" style="fill:none;fill-rule:nonzero;stroke:rgb(40,44,52);stroke-width:10px;stroke-linejoin:miter;stroke-miterlimit:10;"/>
                                <path d="M470.287,508.753L511.459,658.745" style="fill:none;fill-rule:nonzero;stroke:rgb(40,44,52);stroke-width:10px;stroke-linejoin:miter;stroke-miterlimit:10;"/>
                            </g>
                        </g>
                        <g transform="matrix(1.69453,0,0,1.69453,6669.4,6280.91)">
                            <g transform="matrix(1.03774,0,0,1.03774,-18.9363,-10.0547)">
                                <path d="M423.72,266.449C422.009,237.584 441.54,215.081 463.567,199.081C474.605,191.063 487.947,189.182 501.86,189.182C513.025,189.182 523.574,192.309 533.757,195.497C561.96,204.327 567.658,217.862 573.972,236.638C577.147,246.08 580,255.882 580,266.449C580,290.233 579.285,306.788 558.239,324.062C536.631,341.797 527.615,341.978 501.86,343.716C501.808,343.719 483.252,343.716 474.156,338.926C447.125,324.692 425.794,301.455 423.72,266.449Z" style="fill:rgb(171,178,191);fill-rule:nonzero;stroke:rgb(171,178,191);stroke-width:10px;stroke-linejoin:miter;stroke-miterlimit:10;"/>
                            </g>
                            <path d="M423.72,266.449C422.009,237.584 441.54,215.081 463.567,199.081C474.605,191.063 487.947,189.182 501.86,189.182C513.025,189.182 523.574,192.309 533.757,195.497C561.96,204.327 567.658,217.862 573.972,236.638C577.147,246.08 580,255.882 580,266.449C580,290.233 579.285,306.788 558.239,324.062C536.631,341.797 527.615,341.978 501.86,343.716C501.808,343.719 483.252,343.716 474.156,338.926C447.125,324.692 425.794,301.455 423.72,266.449Z" style="fill:rgb(255,204,0);fill-rule:nonzero;stroke:rgb(40,44,52);stroke-width:10px;stroke-linejoin:miter;stroke-miterlimit:10;"/>
                            <path d="M491.446,268.146C483.344,265.455 486.75,249.941 498.9,249.941C503.972,249.941 509.123,252.171 514.246,256.157C521.862,262.082 519.607,268.125 517.632,273.912C515.684,279.618 516.177,279.981 505.399,286.121C499.688,289.375 492.266,290.036 485.412,287.945C478.558,285.855 472.27,280.839 468.598,273.943C464.925,267.048 460.666,258.622 463.15,250.475C465.634,242.327 467.882,232.279 476.078,227.914C484.273,223.548 501.619,219.721 511.303,222.674C520.987,225.627 535.073,228.273 541.675,239.534C550.916,255.297 547.086,265.458 544.24,277.151C540.156,293.931 529.788,304.371 518.209,310.539C506.63,316.706 488.402,317.019 474.721,312.847C461.04,308.675 448.49,298.661 441.159,284.898C433.828,271.135 431.873,253.741 436.832,237.479C441.79,221.217 453.692,206.3 470.052,197.586C486.411,188.873 506.085,186.864 525.414,192.758" style="fill:none;fill-rule:nonzero;stroke:rgb(40,44,52);stroke-width:10px;stroke-linecap:round;stroke-linejoin:miter;stroke-miterlimit:10;"/>
                            <g transform="matrix(0.901369,0,0,0.897537,49.46,25.5193)">
                                <path d="M494.676,267.005C486.574,264.314 491.024,256.622 498.479,255.704C503.513,255.084 504.994,256.001 510.431,259.544C515.62,262.926 516.483,267.843 516.264,269.797C515.781,274.119 512.762,281.055 505.491,284.902C499.681,287.975 492.307,289.867 485.453,287.776C478.599,285.686 472.925,280.839 469.253,273.943C465.58,267.048 462.667,259.477 465.151,251.33C467.635,243.182 468.373,234.694 476.625,230.438C489.56,223.769 502.047,222.418 511.731,225.371C521.415,228.324 534.871,230.587 541.473,241.848C550.714,257.611 547.086,265.458 544.24,277.151C540.156,293.931 529.133,305.686 517.554,311.854C505.975,318.021 487.448,319.037 473.767,314.865C460.086,310.693 446.65,297.832 439.319,284.069C431.988,270.306 431.362,251.497 436.321,235.235C441.279,218.973 459.69,201.038 468.201,196.398C478.47,190.748 492,188.53 505.72,188.962C528.156,189.668 551.099,197.355 561.114,207.928C573.489,221.125 577.428,235.161 580.482,249.621C583.537,264.082 584.104,276.974 580.985,296.046C578.424,311.705 563.784,326.976 552.54,335.045C541.296,343.113 523.779,348.674 501.845,348.63C480.5,348.588 469.841,343.765 462.984,338.508C456.126,333.249 444.906,324.698 437.655,315.415C434.007,310.745 429.112,303.241 424.825,289.577C419.28,271.902 421.187,256.455 421.187,256.455" style="fill:none;fill-rule:nonzero;stroke:white;stroke-width:1.54px;stroke-linecap:round;stroke-linejoin:miter;stroke-miterlimit:10;"/>
                            </g>
                        </g>
                        <g transform="matrix(1.69453,0,0,1.69453,6669.4,6280.91)">
                            <g transform="matrix(1.03774,0,0,1.03774,-11.2554,-10.0547)">
                                <path d="M376.356,266.449C378.067,237.584 358.535,215.081 336.508,199.081C325.47,191.063 312.129,189.182 298.216,189.182C287.05,189.182 276.501,192.309 266.318,195.497C238.115,204.327 232.417,217.862 226.103,236.638C222.928,246.08 220.075,255.882 220.075,266.449C220.075,290.233 220.79,306.788 241.836,324.062C263.444,341.797 272.46,341.978 298.216,343.716C298.268,343.719 316.824,343.716 325.919,338.926C352.951,324.692 374.281,301.455 376.356,266.449Z" style="fill:rgb(243,20,89);fill-rule:nonzero;stroke:rgb(160,161,167);stroke-width:10px;stroke-linejoin:miter;stroke-miterlimit:10;"/>
                            </g>
                            <path d="M376.356,266.449C378.067,237.584 358.535,215.081 336.508,199.081C325.47,191.063 312.129,189.182 298.216,189.182C287.05,189.182 276.501,192.309 266.318,195.497C238.115,204.327 232.417,217.862 226.103,236.638C222.928,246.08 220.075,255.882 220.075,266.449C220.075,290.233 220.79,306.788 241.836,324.062C263.444,341.797 272.46,341.978 298.216,343.716C298.268,343.719 316.824,343.716 325.919,338.926C352.951,324.692 374.281,301.455 376.356,266.449Z" style="fill:rgb(243,20,89);fill-rule:nonzero;stroke:rgb(40,44,52);stroke-width:10px;stroke-linejoin:miter;stroke-miterlimit:10;"/>
                            <path d="M308.629,268.146C316.731,265.455 313.325,249.941 301.176,249.941C296.103,249.941 290.953,252.171 285.829,256.157C278.213,262.082 280.468,268.125 282.443,273.912C284.391,279.618 283.898,279.981 294.676,286.121C300.387,289.375 307.809,290.036 314.663,287.945C321.518,285.855 327.805,280.839 331.478,273.943C335.151,267.048 339.41,258.622 336.925,250.475C334.441,242.327 332.194,232.279 323.998,227.914C315.802,223.548 298.457,219.721 288.773,222.674C279.089,225.627 265.002,228.273 258.4,239.534C249.159,255.297 252.99,265.458 255.835,277.151C259.92,293.931 270.287,304.371 281.867,310.539C293.446,316.706 311.673,317.019 325.354,312.847C339.036,308.675 351.585,298.661 358.916,284.898C366.247,271.135 368.203,253.741 363.244,237.479C358.285,221.217 346.383,206.3 330.024,197.586C313.664,188.873 293.991,186.864 274.662,192.758" style="fill:none;fill-rule:nonzero;stroke:rgb(40,44,52);stroke-width:10px;stroke-linecap:round;stroke-linejoin:miter;stroke-miterlimit:10;"/>
                            <g transform="matrix(-0.901369,0,0,0.897537,751.178,25.5155)">
                                <path d="M494.676,266.347C488.538,264.314 491.024,256.622 498.479,255.704C503.513,255.084 504.994,256.001 510.431,259.544C515.62,262.926 516.483,267.843 516.264,269.797C515.781,274.119 512.762,281.055 505.491,284.902C499.681,287.975 492.266,289.378 485.412,287.287C478.558,285.197 473.306,280.767 469.634,273.871C465.961,266.976 463.321,259.477 465.151,251.33C467.017,243.018 468.373,234.694 476.625,230.438C489.56,223.769 502.047,222.418 511.731,225.371C521.415,228.324 534.871,230.587 541.473,241.848C550.714,257.611 547.086,265.458 544.24,277.151C540.156,293.931 530.062,305.415 518.483,311.583C506.904,317.75 487.506,318.844 473.767,314.865C459.899,310.848 446.274,298.143 439.319,284.069C432.41,270.089 431.362,251.497 436.321,235.235C441.279,218.973 460.264,202.63 468.201,197.055C491.444,180.732 545.55,190.507 561.114,207.928C573.168,221.419 577.428,235.161 580.482,249.621C583.537,264.082 584.632,277.131 581.286,296.164C578.07,314.453 563.784,326.976 552.54,335.045C541.296,343.113 523.779,348.674 501.845,348.63C480.5,348.588 469.893,343.546 463.037,338.289C456.178,333.03 445.02,324.612 437.769,315.329C434.121,310.659 429.112,303.241 424.825,289.577C419.28,271.902 421.187,256.455 421.187,256.455" style="fill:none;fill-rule:nonzero;stroke:white;stroke-width:1.57px;stroke-linecap:round;stroke-linejoin:miter;stroke-miterlimit:10;"/>
                            </g>
                        </g>
                        <g transform="matrix(1.20356,0,0,1.10681,6866.31,6455.2)">
                            <g transform="matrix(1.18694,0,0,1.18694,-71.039,-80.4221)">
                                <path d="M420,447C420,387 340,410 340,450L420,447Z" style="fill:rgb(160,161,167);fill-rule:nonzero;stroke:rgb(160,161,167);stroke-width:10px;stroke-linecap:round;stroke-miterlimit:10;"/>
                            </g>
                            <g transform="matrix(1.19387,0,0,1.19387,-87.2409,-82.9886)">
                                <path d="M420,447C420,387 480,407 480,447L420,447Z" style="fill:rgb(171,178,191);fill-rule:nonzero;stroke:rgb(171,178,191);stroke-width:10px;stroke-linecap:round;stroke-miterlimit:10;"/>
                            </g>
                            <path d="M420,447C420,387 480,407 480,447L420,447Z" style="fill:rgb(206,152,135);fill-rule:nonzero;stroke:rgb(40,44,52);stroke-width:10px;stroke-linecap:round;stroke-miterlimit:10;"/>
                            <path d="M440,450C440,430 459.837,447 459.837,447" style="fill:rgb(206,152,135);fill-rule:nonzero;stroke:rgb(40,44,52);stroke-width:10px;stroke-miterlimit:10;"/>
                            <path d="M420,447C420,387 340,410 340,450L420,447Z" style="fill:rgb(122,130,218);fill-rule:nonzero;stroke:rgb(40,44,52);stroke-width:10px;stroke-linecap:round;stroke-miterlimit:10;"/>
                            <path d="M396.774,330.147C400.236,408.664 445.239,408.665 444.024,409.185C444.024,409.185 423.396,418.221 407.674,379.5" style="fill:none;fill-rule:nonzero;stroke:rgb(40,44,52);stroke-width:8.65px;stroke-miterlimit:10;"/>
                            <g transform="matrix(0.806131,0,0,0.758413,86.8244,103.421)">
                                <path d="M419.905,444.793C419.905,384.793 480.089,415.401 480.766,444.721" style="fill:none;fill-rule:nonzero;stroke:white;stroke-width:2.57px;stroke-linecap:square;stroke-miterlimit:10;"/>
                            </g>
                            <path d="M380,450C380,430 396.76,447.871 396.76,447.871" style="fill:rgb(122,130,218);fill-rule:nonzero;stroke:rgb(40,44,52);stroke-width:10px;stroke-miterlimit:10;"/>
                            <g transform="matrix(0.830866,0,0,0.9035,-7619.83,-5292.23)">
                                <path d="M9670.97,6345.47C9670.33,6325.49 9652.25,6316.34 9632.51,6318.2C9610.94,6320.23 9587.32,6334.83 9587.7,6348.38" style="fill:none;stroke:white;stroke-width:2.4px;stroke-linecap:square;stroke-miterlimit:1.5;"/>
                            </g>
                            <g transform="matrix(0.830866,0,0,0.900029,-7619.83,-5271.53)">
                                <path d="M9652.54,6224.75C9652.74,6229.57 9654.55,6246.4 9660.87,6262.7C9669.18,6284.13 9686.1,6306.68 9707.38,6304.76" style="fill:none;stroke:white;stroke-width:2.4px;stroke-linecap:square;stroke-miterlimit:1.5;"/>
                            </g>
                        </g>
                        <g transform="matrix(1,0,0,1,6946.77,6498.85)">
                            <g transform="matrix(-1.03814,-0.221172,-0.185839,0.872294,10912.2,-450.393)">
                                <rect x="9435" y="2896" width="17" height="79" style="fill:rgb(40,44,52);"/>
                                <path d="M9452,2890.39L9435,2890.39C9432.4,2890.39 9430.29,2892.9 9430.29,2896L9430.29,2975C9430.29,2978.1 9432.4,2980.61 9435,2980.61L9452,2980.61C9454.6,2980.61 9456.71,2978.1 9456.71,2975L9456.71,2896C9456.71,2892.9 9454.6,2890.39 9452,2890.39ZM9452,2896L9452,2975L9435,2975L9435,2896L9452,2896Z" style="fill:rgb(171,178,191);"/>
                            </g>
                            <g transform="matrix(-0.857604,-0.510666,-0.476053,0.799475,10130.8,2514.47)">
                                <rect x="9435" y="2896" width="17" height="79" style="fill:rgb(40,44,52);"/>
                                <path d="M9452,2890.63L9435,2890.63C9432.23,2890.63 9429.99,2893.03 9429.99,2896L9429.99,2975C9429.99,2977.97 9432.23,2980.37 9435,2980.37L9452,2980.37C9454.77,2980.37 9457.01,2977.97 9457.01,2975L9457.01,2896C9457.01,2893.03 9454.77,2890.63 9452,2890.63ZM9452,2896L9452,2975L9435,2975L9435,2896L9452,2896Z" style="fill:rgb(171,178,191);"/>
                            </g>
                            <g transform="matrix(-0.73924,-0.670662,-0.563874,0.621533,9334.22,4576.99)">
                                <rect x="9435" y="2896" width="17" height="79" style="fill:rgb(40,44,52);"/>
                                <path d="M9452,2890.04L9435,2890.04C9432.23,2890.04 9429.99,2892.71 9429.99,2896L9429.99,2975C9429.99,2978.29 9432.23,2980.96 9435,2980.96L9452,2980.96C9454.77,2980.96 9457.01,2978.29 9457.01,2975L9457.01,2896C9457.01,2892.71 9454.77,2890.04 9452,2890.04ZM9452,2896L9452,2975L9435,2975L9435,2896L9452,2896Z" style="fill:rgb(171,178,191);"/>
                            </g>
                            <g transform="matrix(0.999944,0.000262312,0.000262312,0.998766,-9111.36,-5847.21)">
                                <path d="M9825.17,5890.54L9780.64,5939.74" style="fill:none;stroke:white;stroke-width:2.4px;stroke-miterlimit:1.5;"/>
                            </g>
                            <g transform="matrix(0.999944,0.000262312,0.000262312,0.998766,-9252.91,-5896.44)">
                                <path d="M9814.61,5886.62L9799.88,5955.62" style="fill:none;stroke:white;stroke-width:2.4px;stroke-miterlimit:1.5;"/>
                            </g>
                            <g transform="matrix(0.999944,0.000262312,0.000262312,0.998766,-9175.91,-5880.76)">
                                <path d="M9822,5889.01L9784.37,5952.25" style="fill:none;stroke:white;stroke-width:2.4px;stroke-miterlimit:1.5;"/>
                            </g>
                        </g>
                        <g transform="matrix(1,0,0,1,6946.77,6498.85)">
                            <g transform="matrix(1.03814,-0.221172,0.185839,0.872294,-10108.9,-450.393)">
                                <rect x="9435" y="2896" width="17" height="79" style="fill:rgb(40,44,52);"/>
                                <path d="M9456.71,2896L9456.71,2975C9456.71,2978.1 9454.6,2980.61 9452,2980.61L9435,2980.61C9432.4,2980.61 9430.29,2978.1 9430.29,2975L9430.29,2896C9430.29,2892.9 9432.4,2890.39 9435,2890.39L9452,2890.39C9454.6,2890.39 9456.71,2892.9 9456.71,2896ZM9452,2896L9435,2896L9435,2975L9452,2975L9452,2896Z" style="fill:rgb(160,161,167);"/>
                            </g>
                            <g transform="matrix(0.857604,-0.510666,0.476053,0.799475,-9327.39,2514.47)">
                                <rect x="9435" y="2896" width="17" height="79" style="fill:rgb(40,44,52);"/>
                                <path d="M9457.01,2896L9457.01,2975C9457.01,2977.97 9454.77,2980.37 9452,2980.37L9435,2980.37C9432.23,2980.37 9429.99,2977.97 9429.99,2975L9429.99,2896C9429.99,2893.03 9432.23,2890.63 9435,2890.63L9452,2890.63C9454.77,2890.63 9457.01,2893.03 9457.01,2896ZM9452,2896L9435,2896L9435,2975L9452,2975L9452,2896Z" style="fill:rgb(160,161,167);"/>
                            </g>
                            <g transform="matrix(0.73924,-0.670662,0.563874,0.621533,-8530.85,4576.99)">
                                <rect x="9435" y="2896" width="17" height="79" style="fill:rgb(40,44,52);"/>
                                <path d="M9457.01,2896L9457.01,2975C9457.01,2978.29 9454.77,2980.96 9452,2980.96L9435,2980.96C9432.23,2980.96 9429.99,2978.29 9429.99,2975L9429.99,2896C9429.99,2892.71 9432.23,2890.04 9435,2890.04L9452,2890.04C9454.77,2890.04 9457.01,2892.71 9457.01,2896ZM9452,2896L9435,2896L9435,2975L9452,2975L9452,2896Z" style="fill:rgb(160,161,167);"/>
                            </g>
                            <g transform="matrix(1,0,0,1,-9251.41,-5901.13)">
                                <path d="M9492.14,5886.62L9506.76,5955.55" style="fill:none;stroke:white;stroke-width:2.4px;stroke-miterlimit:1.5;"/>
                            </g>
                            <g transform="matrix(1,0,0,1,-9251.41,-5901.13)">
                                <path d="M9339.98,5939.76L9384.51,5988.88" style="fill:none;stroke:white;stroke-width:2.4px;stroke-miterlimit:1.5;"/>
                            </g>
                            <g transform="matrix(1,0,0,1,-9251.41,-5901.13)">
                                <path d="M9407.72,5904.68L9445.31,5967.85" style="fill:none;stroke:white;stroke-width:2.4px;stroke-miterlimit:1.5;"/>
                            </g>
                        </g>
                    </g>
                </g>
            </g>
        </g>
    </g>
</svg>
